2807776bfcb2eddd315d2b0675afc445 *tests/data/fate/pcm_dvd-16-1-96000.vob
1173504 tests/data/fate/pcm_dvd-16-1-96000.vob
#tb 0: 1/96000
#media_type 0: audio
#codec_id 0: pcm_s16le
#sample_rate 0: 96000
#channel_layout_name 0: mono
0,          0,          0,      997,     1994, 0xa58fdef0
0,       1004,       1004,     1006,     2012, 0xb634eec3
0,       2010,       2010,     1006,     2012, 0x8371e23d
0,       3012,       3012,     1006,     2012, 0x8cecf569
0,       4017,       4017,     1006,     2012, 0xc990d62c
0,       6025,       6025,     1006,     2012, 0xf678fc74
0,       7029,       7029,     1006,     2012, 0x78f8dde4
0,       8033,       8033,     1006,     2012, 0x1d67ecc0
0,       9037,       9037,     1006,     2012, 0xa520e618
0,      10042,      10042,     1006,     2012, 0x83f2f584
0,      11044,      11044,     1006,     2012, 0x08e6dee5
0,      12049,      12049,     1006,     2012, 0x28d8f24f
0,      13053,      13053,     1006,     2012, 0x68b2ed35
0,      14058,      14058,     1006,     2012, 0x3aeee8f8
0,      15060,      15060,     1006,     2012, 0x76a2eb0a
0,      16065,      16065,     1006,     2012, 0x713eea12
0,      17069,      17069,     1006,     2012, 0x9992ebc8
0,      18074,      18074,     1006,     2012, 0x847fe12e
0,      19076,      19076,      124,      248, 0x2c4b88bc
